<mxfile host="app.diagrams.net" modified="2022-11-12T03:13:55.739Z" agent="5.0 (Macintosh; Intel Mac OS X 10_15_7) AppleWebKit/537.36 (KHTML, like Gecko) Chrome/107.0.0.0 Safari/537.36" etag="50p3p-tllnbEFkp7dly8" version="20.5.3" type="github">
  <diagram id="ogUiPQi6vr1OvKkWl02u" name="Page-1">
    <mxGraphModel dx="901" dy="561" grid="1" gridSize="10" guides="1" tooltips="1" connect="1" arrows="1" fold="1" page="1" pageScale="1" pageWidth="827" pageHeight="1169" math="0" shadow="0">
      <root>
        <mxCell id="0" />
        <mxCell id="1" parent="0" />
        <mxCell id="HQM0hruL7ucGSPkx7Eah-11" value="" style="edgeStyle=orthogonalEdgeStyle;rounded=0;orthogonalLoop=1;jettySize=auto;html=1;entryX=0.444;entryY=0;entryDx=0;entryDy=0;entryPerimeter=0;" edge="1" parent="1" source="HQM0hruL7ucGSPkx7Eah-1" target="HQM0hruL7ucGSPkx7Eah-51">
          <mxGeometry relative="1" as="geometry">
            <mxPoint x="250" y="290" as="targetPoint" />
          </mxGeometry>
        </mxCell>
        <mxCell id="HQM0hruL7ucGSPkx7Eah-1" value="http://localhost:8888/lab/login" style="rounded=0;whiteSpace=wrap;html=1;" vertex="1" parent="1">
          <mxGeometry x="150" y="190" width="200" height="60" as="geometry" />
        </mxCell>
        <mxCell id="HQM0hruL7ucGSPkx7Eah-65" value="" style="edgeStyle=orthogonalEdgeStyle;rounded=0;orthogonalLoop=1;jettySize=auto;html=1;fontColor=#FF0000;" edge="1" parent="1" source="HQM0hruL7ucGSPkx7Eah-2" target="HQM0hruL7ucGSPkx7Eah-64">
          <mxGeometry relative="1" as="geometry" />
        </mxCell>
        <mxCell id="HQM0hruL7ucGSPkx7Eah-2" value="http://localhost:8888/lab/login" style="rounded=0;whiteSpace=wrap;html=1;" vertex="1" parent="1">
          <mxGeometry x="150" y="510" width="200" height="60" as="geometry" />
        </mxCell>
        <mxCell id="HQM0hruL7ucGSPkx7Eah-4" value="" style="edgeStyle=orthogonalEdgeStyle;rounded=0;orthogonalLoop=1;jettySize=auto;html=1;" edge="1" parent="1" source="HQM0hruL7ucGSPkx7Eah-3" target="HQM0hruL7ucGSPkx7Eah-1">
          <mxGeometry relative="1" as="geometry" />
        </mxCell>
        <mxCell id="HQM0hruL7ucGSPkx7Eah-5" value="GET" style="edgeLabel;html=1;align=center;verticalAlign=middle;resizable=0;points=[];" vertex="1" connectable="0" parent="HQM0hruL7ucGSPkx7Eah-4">
          <mxGeometry x="-0.2286" y="-1" relative="1" as="geometry">
            <mxPoint as="offset" />
          </mxGeometry>
        </mxCell>
        <mxCell id="HQM0hruL7ucGSPkx7Eah-3" value="start" style="ellipse;whiteSpace=wrap;html=1;aspect=fixed;" vertex="1" parent="1">
          <mxGeometry x="230" y="80" width="40" height="40" as="geometry" />
        </mxCell>
        <mxCell id="HQM0hruL7ucGSPkx7Eah-12" value="" style="edgeStyle=orthogonalEdgeStyle;rounded=0;orthogonalLoop=1;jettySize=auto;html=1;exitX=0.439;exitY=1;exitDx=0;exitDy=0;exitPerimeter=0;" edge="1" parent="1" source="HQM0hruL7ucGSPkx7Eah-55" target="HQM0hruL7ucGSPkx7Eah-2">
          <mxGeometry relative="1" as="geometry">
            <mxPoint x="250" y="380" as="sourcePoint" />
          </mxGeometry>
        </mxCell>
        <mxCell id="HQM0hruL7ucGSPkx7Eah-13" value="POST" style="edgeLabel;html=1;align=center;verticalAlign=middle;resizable=0;points=[];" vertex="1" connectable="0" parent="HQM0hruL7ucGSPkx7Eah-12">
          <mxGeometry x="-0.04" y="-2" relative="1" as="geometry">
            <mxPoint as="offset" />
          </mxGeometry>
        </mxCell>
        <mxCell id="HQM0hruL7ucGSPkx7Eah-37" value="POST data" style="shape=table;startSize=30;container=1;collapsible=0;childLayout=tableLayout;fixedRows=1;rowLines=0;fontStyle=1;" vertex="1" parent="1">
          <mxGeometry x="360" y="420" width="180" height="90" as="geometry" />
        </mxCell>
        <mxCell id="HQM0hruL7ucGSPkx7Eah-38" value="" style="shape=tableRow;horizontal=0;startSize=0;swimlaneHead=0;swimlaneBody=0;top=0;left=0;bottom=0;right=0;collapsible=0;dropTarget=0;fillColor=none;points=[[0,0.5],[1,0.5]];portConstraint=eastwest;" vertex="1" parent="HQM0hruL7ucGSPkx7Eah-37">
          <mxGeometry y="30" width="180" height="30" as="geometry" />
        </mxCell>
        <mxCell id="HQM0hruL7ucGSPkx7Eah-39" value="_xsfr" style="shape=partialRectangle;html=1;whiteSpace=wrap;connectable=0;fillColor=#f8cecc;top=0;left=0;bottom=0;right=0;overflow=hidden;pointerEvents=1;strokeColor=#b85450;" vertex="1" parent="HQM0hruL7ucGSPkx7Eah-38">
          <mxGeometry width="60" height="30" as="geometry">
            <mxRectangle width="60" height="30" as="alternateBounds" />
          </mxGeometry>
        </mxCell>
        <mxCell id="HQM0hruL7ucGSPkx7Eah-40" value="Value 1" style="shape=partialRectangle;html=1;whiteSpace=wrap;connectable=0;fillColor=#f8cecc;top=0;left=0;bottom=0;right=0;align=left;spacingLeft=6;overflow=hidden;strokeColor=#b85450;" vertex="1" parent="HQM0hruL7ucGSPkx7Eah-38">
          <mxGeometry x="60" width="120" height="30" as="geometry">
            <mxRectangle width="120" height="30" as="alternateBounds" />
          </mxGeometry>
        </mxCell>
        <mxCell id="HQM0hruL7ucGSPkx7Eah-41" value="" style="shape=tableRow;horizontal=0;startSize=0;swimlaneHead=0;swimlaneBody=0;top=0;left=0;bottom=0;right=0;collapsible=0;dropTarget=0;fillColor=none;points=[[0,0.5],[1,0.5]];portConstraint=eastwest;" vertex="1" parent="HQM0hruL7ucGSPkx7Eah-37">
          <mxGeometry y="60" width="180" height="30" as="geometry" />
        </mxCell>
        <mxCell id="HQM0hruL7ucGSPkx7Eah-42" value="password" style="shape=partialRectangle;html=1;whiteSpace=wrap;connectable=0;fillColor=none;top=0;left=0;bottom=0;right=0;overflow=hidden;" vertex="1" parent="HQM0hruL7ucGSPkx7Eah-41">
          <mxGeometry width="60" height="30" as="geometry">
            <mxRectangle width="60" height="30" as="alternateBounds" />
          </mxGeometry>
        </mxCell>
        <mxCell id="HQM0hruL7ucGSPkx7Eah-43" value="Value2" style="shape=partialRectangle;html=1;whiteSpace=wrap;connectable=0;fillColor=none;top=0;left=0;bottom=0;right=0;align=left;spacingLeft=6;overflow=hidden;" vertex="1" parent="HQM0hruL7ucGSPkx7Eah-41">
          <mxGeometry x="60" width="120" height="30" as="geometry">
            <mxRectangle width="120" height="30" as="alternateBounds" />
          </mxGeometry>
        </mxCell>
        <mxCell id="HQM0hruL7ucGSPkx7Eah-47" value="" style="endArrow=classic;html=1;rounded=0;" edge="1" parent="1">
          <mxGeometry width="50" height="50" relative="1" as="geometry">
            <mxPoint x="360" y="440" as="sourcePoint" />
            <mxPoint x="270" y="440" as="targetPoint" />
          </mxGeometry>
        </mxCell>
        <mxCell id="HQM0hruL7ucGSPkx7Eah-51" value="response.headers" style="shape=table;startSize=30;container=1;collapsible=0;childLayout=tableLayout;fixedRows=1;rowLines=0;fontStyle=1;" vertex="1" parent="1">
          <mxGeometry x="170" y="290" width="180" height="90" as="geometry" />
        </mxCell>
        <mxCell id="HQM0hruL7ucGSPkx7Eah-52" value="" style="shape=tableRow;horizontal=0;startSize=0;swimlaneHead=0;swimlaneBody=0;top=0;left=0;bottom=0;right=0;collapsible=0;dropTarget=0;fillColor=none;points=[[0,0.5],[1,0.5]];portConstraint=eastwest;" vertex="1" parent="HQM0hruL7ucGSPkx7Eah-51">
          <mxGeometry y="30" width="180" height="30" as="geometry" />
        </mxCell>
        <mxCell id="HQM0hruL7ucGSPkx7Eah-53" value="_xsfr" style="shape=partialRectangle;html=1;whiteSpace=wrap;connectable=0;fillColor=#f8cecc;top=0;left=0;bottom=0;right=0;overflow=hidden;pointerEvents=1;strokeColor=#b85450;" vertex="1" parent="HQM0hruL7ucGSPkx7Eah-52">
          <mxGeometry width="60" height="30" as="geometry">
            <mxRectangle width="60" height="30" as="alternateBounds" />
          </mxGeometry>
        </mxCell>
        <mxCell id="HQM0hruL7ucGSPkx7Eah-54" value="Value 1" style="shape=partialRectangle;html=1;whiteSpace=wrap;connectable=0;fillColor=#f8cecc;top=0;left=0;bottom=0;right=0;align=left;spacingLeft=6;overflow=hidden;strokeColor=#b85450;" vertex="1" parent="HQM0hruL7ucGSPkx7Eah-52">
          <mxGeometry x="60" width="120" height="30" as="geometry">
            <mxRectangle width="120" height="30" as="alternateBounds" />
          </mxGeometry>
        </mxCell>
        <mxCell id="HQM0hruL7ucGSPkx7Eah-55" value="" style="shape=tableRow;horizontal=0;startSize=0;swimlaneHead=0;swimlaneBody=0;top=0;left=0;bottom=0;right=0;collapsible=0;dropTarget=0;fillColor=none;points=[[0,0.5],[1,0.5]];portConstraint=eastwest;" vertex="1" parent="HQM0hruL7ucGSPkx7Eah-51">
          <mxGeometry y="60" width="180" height="30" as="geometry" />
        </mxCell>
        <mxCell id="HQM0hruL7ucGSPkx7Eah-56" value="..." style="shape=partialRectangle;html=1;whiteSpace=wrap;connectable=0;fillColor=none;top=0;left=0;bottom=0;right=0;overflow=hidden;" vertex="1" parent="HQM0hruL7ucGSPkx7Eah-55">
          <mxGeometry width="60" height="30" as="geometry">
            <mxRectangle width="60" height="30" as="alternateBounds" />
          </mxGeometry>
        </mxCell>
        <mxCell id="HQM0hruL7ucGSPkx7Eah-57" value="..." style="shape=partialRectangle;html=1;whiteSpace=wrap;connectable=0;fillColor=none;top=0;left=0;bottom=0;right=0;align=left;spacingLeft=6;overflow=hidden;" vertex="1" parent="HQM0hruL7ucGSPkx7Eah-55">
          <mxGeometry x="60" width="120" height="30" as="geometry">
            <mxRectangle width="120" height="30" as="alternateBounds" />
          </mxGeometry>
        </mxCell>
        <mxCell id="HQM0hruL7ucGSPkx7Eah-59" value="" style="endArrow=classic;html=1;rounded=0;exitX=1.005;exitY=0.268;exitDx=0;exitDy=0;entryX=1;entryY=0.5;entryDx=0;entryDy=0;exitPerimeter=0;" edge="1" parent="1" source="HQM0hruL7ucGSPkx7Eah-52" target="HQM0hruL7ucGSPkx7Eah-37">
          <mxGeometry width="50" height="50" relative="1" as="geometry">
            <mxPoint x="170" y="510" as="sourcePoint" />
            <mxPoint x="600" y="500" as="targetPoint" />
            <Array as="points">
              <mxPoint x="610" y="330" />
              <mxPoint x="610" y="465" />
            </Array>
          </mxGeometry>
        </mxCell>
        <mxCell id="HQM0hruL7ucGSPkx7Eah-61" value="" style="shape=flexArrow;endArrow=classic;html=1;rounded=0;" edge="1" parent="1" target="HQM0hruL7ucGSPkx7Eah-41">
          <mxGeometry width="50" height="50" relative="1" as="geometry">
            <mxPoint x="470" y="570" as="sourcePoint" />
            <mxPoint x="450" y="540" as="targetPoint" />
          </mxGeometry>
        </mxCell>
        <mxCell id="HQM0hruL7ucGSPkx7Eah-62" value="&lt;font color=&quot;#ff0000&quot;&gt;Put your password here&lt;/font&gt;" style="text;html=1;align=center;verticalAlign=middle;resizable=0;points=[];autosize=1;strokeColor=none;fillColor=none;" vertex="1" parent="1">
          <mxGeometry x="410" y="570" width="150" height="30" as="geometry" />
        </mxCell>
        <mxCell id="HQM0hruL7ucGSPkx7Eah-64" value="&lt;font color=&quot;#000000&quot;&gt;cookies&lt;/font&gt;" style="rounded=1;whiteSpace=wrap;html=1;fontColor=#FF0000;" vertex="1" parent="1">
          <mxGeometry x="190" y="610" width="120" height="40" as="geometry" />
        </mxCell>
        <mxCell id="HQM0hruL7ucGSPkx7Eah-66" value="" style="shape=flexArrow;endArrow=classic;html=1;rounded=0;fontColor=#000000;" edge="1" parent="1" target="HQM0hruL7ucGSPkx7Eah-64">
          <mxGeometry width="50" height="50" relative="1" as="geometry">
            <mxPoint x="340" y="710" as="sourcePoint" />
            <mxPoint x="260" y="720" as="targetPoint" />
          </mxGeometry>
        </mxCell>
        <mxCell id="HQM0hruL7ucGSPkx7Eah-67" value="Use this cookie to access other api" style="text;html=1;align=center;verticalAlign=middle;resizable=0;points=[];autosize=1;strokeColor=none;fillColor=none;fontColor=#000000;" vertex="1" parent="1">
          <mxGeometry x="250" y="720" width="210" height="30" as="geometry" />
        </mxCell>
      </root>
    </mxGraphModel>
  </diagram>
</mxfile>
